<svg width="800" height="600" viewBox="0 0 800 600" fill="none" xmlns="http://www.w3.org/2000/svg">
  <defs>
    <linearGradient id="grad" x1="0" y1="0" x2="1" y2="1">
      <stop offset="0%" stop-color="#F73A20" stop-opacity="0.16"/>
      <stop offset="100%" stop-color="#4AA3E0" stop-opacity="0.22"/>
    </linearGradient>
    <linearGradient id="glow" x1="0" y1="0" x2="1" y2="0">
      <stop offset="0%" stop-color="#FFFFFF" stop-opacity="0.65"/>
      <stop offset="100%" stop-color="#FFFFFF" stop-opacity="0.0"/>
    </linearGradient>
  </defs>
  <rect x="0" y="0" width="800" height="600" rx="42" fill="url(#grad)"/>
  <rect x="56" y="90" width="560" height="360" rx="32" fill="url(#glow)" opacity="0.7"/>
  <circle cx="520" cy="240" r="96" fill="#F73A20" opacity="0.28"/>
  <circle cx="360" cy="300" r="64" fill="#4AA3E0" opacity="0.22"/>
  <path d="M280 355C280 321.863 306.863 295 340 295H470C503.137 295 530 321.863 530 355V410H280V355Z" fill="#FFFFFF" opacity="0.82"/>
  <rect x="310" y="240" width="160" height="20" rx="10" fill="#0B0B0B" opacity="0.12"/>
  <rect x="330" y="270" width="120" height="16" rx="8" fill="#0B0B0B" opacity="0.14"/>
  <rect x="320" y="332" width="140" height="16" rx="8" fill="#F73A20" opacity="0.75"/>
  <text x="300" y="205" fill="#0B0B0B" font-family="Inter, system-ui, -apple-system, sans-serif" font-size="42" font-weight="700" opacity="0.75">Scene preview</text>
  <text x="300" y="238" fill="#0B0B0B" font-family="Inter, system-ui, -apple-system, sans-serif" font-size="20" font-weight="500" opacity="0.6">Temporary placeholder</text>
</svg>
